<?xml version="1.0" encoding="utf-8"?>
<!-- Generator: Adobe Illustrator 16.0.0, SVG Export Plug-In . SVG Version: 6.00 Build 0)  -->
<!DOCTYPE svg PUBLIC "-//W3C//DTD SVG 1.1//EN" "http://www.w3.org/Graphics/SVG/1.1/DTD/svg11.dtd">
<svg version="1.1" id="Layer_1" xmlns="http://www.w3.org/2000/svg" xmlns:xlink="http://www.w3.org/1999/xlink" x="0px" y="0px"
	 width="65.259px" height="44.082px" viewBox="0 0 65.259 44.082" enable-background="new 0 0 65.259 44.082" xml:space="preserve">
<g>
	<g>
		<path fill="#ABABAB" d="M58.564,34.196c-0.844-0.013-2.094,2.112-3.25,2.112c-0.302,0-0.697-0.669-0.697-1.307
			c0-2.955,3.338-6.949,4.4-8.829c0.287-0.506,0.153-1.183-0.102-1.475c-0.727-0.834-2.12-2.327-3.873-2.354
			c-0.968-0.015-1.204,0.066-2.223,0.917c-0.092,0.077-0.184,0.162-0.274,0.276h-0.001c0,0-0.003-0.015-0.008-0.01
			c-0.079,0.082-0.158,0.161-0.236,0.256c-0.745,0.825-2.986,3.208-3.659,2.828c-0.487-2.014-2.536-4.41-5.788-4.41
			c-1.341,0-2.882,0.811-4.359,2.113l-0.023-0.024c0,0-4.658,4.777-5.544,3.558c0.002-0.118,0.004-0.235,0.004-0.353
			c0-2.114-2.153-5.296-5.902-5.296c-2.685,0-6.177,3.255-8.349,7.2l0,0l0,0c-0.09,0.164-0.178,0.329-0.263,0.495
			c-0.853,1.579-3.566,6.404-4.881,6.404c-1.119,0-1.847-1.147-1.847-3.333c0-1.596,0.364-3.937,0.975-6.57
			c7.574-5.151,16.809-12.718,16.809-18.995C29.473,3.654,26.641,0,22.59,0C14.711,0,8.866,13.073,6.484,24.601
			c-2.99,1.932-5.161,3.191-5.161,3.191s-2.128,1.515-0.985,3.534c0.896,1.583,2.597,1.063,2.597,1.063s0.985-0.533,2.575-1.469
			c-0.133,1.373-0.202,2.672-0.202,3.86c0,5.087,2.951,8.952,6.927,8.952c1.272,0,3.174-2.396,4.738-4.753
			c0.753,2.864,2.77,4.707,5.689,4.752c4,0.062,8.156-5.544,9.67-11.621c0.327-0.03,0.655-0.068,0.982-0.117
			c-0.533,1.451-0.846,2.921-0.846,4.296c0,4.355,2.264,7.385,6.017,7.442c4.126,0.064,8.417-5.901,9.806-12.193
			c0.332-0.104,0.656-0.225,0.966-0.364c-0.562,2.322-0.9,4.669-0.9,6.37c0,3.35,2.494,6.536,5.397,6.536
			c3.851,0,7.422-6.828,7.422-7.522C61.176,35.854,59.477,34.209,58.564,34.196z M22.117,6.896c0.946,0,1.572,0.593,1.572,1.384
			c0,2.802-4.102,6.782-8.793,10.418C17.048,12.49,19.885,6.896,22.117,6.896z M23.929,36.701c-0.529,0-0.755-0.874-0.755-1.585
			c0-4.164,2.28-6.569,2.618-6.569c-0.591,2.067,0.409,3.599,1.746,3.642v0.002c0.019,0,0.038,0,0.057,0
			C27.594,33.195,25.756,36.701,23.929,36.701z M43.418,32.19c0,1.005-1.838,4.511-3.665,4.511c-0.529,0-0.755-0.874-0.755-1.585
			c0-4.164,2.28-6.569,2.618-6.569c-0.589,2.059,0.399,3.585,1.727,3.641c0.011,0,0.021,0.003,0.031,0.003
			c0.014,0,0.027,0,0.04-0.001C43.417,32.189,43.417,32.19,43.418,32.19z"/>
	</g>
	<g>
		<path fill="#ABABAB" d="M61.037,13.233c-1.659,0-4.154,4.672-4.154,6.155c0,1.483,2.897,3.196,4.028,3.196
			c1.533,0,4.349-4.022,4.349-5.731S62.696,13.233,61.037,13.233z"/>
	</g>
</g>
</svg>
